<svg id="08578a08-ff39-4c50-a822-cd17046f19d6" data-name="153034e1-8e05-4867-94d2-954d239604b5" xmlns="http://www.w3.org/2000/svg" viewBox="0 0 63.99 48.38">
  <title>aspirezone</title>
  <g>
    <path d="M3.93,31.17,0,38.6H1.78L2.58,37H7l.8,1.57H9.58L5.66,31.17Zm2.29,4.39H3.35L4.8,32.85Zm14.68.66a2.17,2.17,0,0,1-1.09,1.9,5.76,5.76,0,0,1-2.94.64,6.91,6.91,0,0,1-4.3-1.22l-.16-.14.88-1.16.17.1a6.46,6.46,0,0,0,3.42,1A4.15,4.15,0,0,0,18.69,37a.79.79,0,0,0,.52-.71c0-.21-.07-.51-.69-.68a16.85,16.85,0,0,0-2.35-.23,7.18,7.18,0,0,1-2.51-.49,1.63,1.63,0,0,1-.93-1.55,2,2,0,0,1,1-1.74,5,5,0,0,1,2.71-.6,6.78,6.78,0,0,1,3.91,1.07l.2.14-1,1.09-.14-.08a6.58,6.58,0,0,0-3.07-.76,4,4,0,0,0-1.56.23c-.44.19-.44.42-.44.5s.05.32.46.47a5.81,5.81,0,0,0,1.37.2c1,.07,1.61.12,1.92.16a4.31,4.31,0,0,1,2.05.68,1.8,1.8,0,0,1,.71,1.52m10-5H25.17v7.43h1.59V35.93h4a3.13,3.13,0,0,0,2-.6,2.23,2.23,0,0,0,.73-1.76,2.26,2.26,0,0,0-.69-1.74A2.53,2.53,0,0,0,31,31.17m-.21,3.29h-4V32.65h3.89c1.07,0,1.2.5,1.2.94s-.13.87-1.13.87m6.55-3.29h1.59V38.6H37.27Zm0-1.6h1.59v.94l-1.59.59Zm14.11,5.6a2.15,2.15,0,0,0,.57-1.58,2.24,2.24,0,0,0-.7-1.76,2.5,2.5,0,0,0-1.86-.66H43.66V38.6h1.59V35.93h3.22l4.15,4.59h.93L50.29,35.8a2.31,2.31,0,0,0,1.09-.63m-6.13-2.52h3.86c1.09,0,1.23.5,1.23.94s-.13.87-1.12.87h-4ZM64,37.12V38.6H56.28V31.17h7.48v1.48H57.87V34H62v1.48H57.92v1.63Z" transform="translate(-0.02 -0.06)" style="fill: #fff"/>
    <path d="M24.43,48.31h-4.7v-.74l3.37-2.73H19.78V44.1h4.5v.75l-3.36,2.72h3.51Zm6.79-2.11a2,2,0,0,1-.88,1.68,3.51,3.51,0,0,1-3.77,0,2,2,0,0,1-.88-1.68,2,2,0,0,1,.89-1.67,3.37,3.37,0,0,1,3.75,0,2,2,0,0,1,.89,1.67m-.85,0a1.33,1.33,0,0,0-.54-1.07,2.18,2.18,0,0,0-1.37-.42,2.22,2.22,0,0,0-1.39.42A1.37,1.37,0,0,0,26.81,47a1.23,1.23,0,0,0,.26.25,2.13,2.13,0,0,0,1.4.42,2.09,2.09,0,0,0,1.38-.42,1.32,1.32,0,0,0,.53-1.09m7.46,2.12H36.6l-2.86-3.51v3.5h-.82V44.1h1.22L37,47.62V44.1h.82Zm6.48,0H39.78V44.1h4.37v.74H40.6v.87h2.47v.74H40.6v1.08h3.71Z" transform="translate(-0.02 -0.06)" style="fill: #fff"/>
    <path d="M52.64,1.27c.16-.13.16-.34.39-1s-.24.46-1.14,1.2-.42.29-.13-.51-.48.88-1.53,1.81.53-1,1-2.22-.74.52-1.1,1.17,0-.62.16-1.66a13.05,13.05,0,0,0-.62,1.61c-.51,1.23-.23-.13-.1-1s-.45,1.73-1,2.71.65-3.09.65-3.09l-1.3,3.83s.4-3.66.38-3.66A37.12,37.12,0,0,1,47.22,5c-.39.8.26-2.63.34-3.22s-.37.16-.54.62-.43.49-.38.1-.18-.17-.76.51-.22-.28-1.44.93-.57.92-1.77,2-.54.22-1.57,1.15S39.8,9,38.86,9.16s-.88-.09-2.12,1.21S35.51,11.78,34.5,12a7.05,7.05,0,0,0-2.29.73,37.67,37.67,0,0,1-2.71,2.8,4.7,4.7,0,0,0-1,.72h0A1.79,1.79,0,0,0,28.84,15c-.13-.73-.34.64-.77,1.22s-.42.58-.69.93A2.27,2.27,0,0,0,27.73,16c0-.89-.07.37-.87,1.09s-.08.15.11-.63-.4.74-1.27,1.29-.73.57-.53,0-.6.48-1.16.86-.08-.22-.33-.77-.59,1-.82,1.18-.23-.87-.52-1.37,0,1.06-.07,1.3,0,.22-.68-.36-.39-.21-.24.16.5.87-.51.13a5.89,5.89,0,0,0-1.65-.9c-.8-.32,1.33,1,1.38,1.22s-.68,0-.81.23a19.77,19.77,0,0,0,8.42-.35c4.94-1.29,8.29-3.68,12-6.84,1.93-1.64,7.76-7.5,12.44-11" transform="translate(-0.02 -0.06)" style="fill: #fff"/>
    <path d="M40.76,13.17c-1.76,1.7-6.44,6.27-12.32,7.38-4.57.86-7.23.44-8.16.21a3.94,3.94,0,0,0,.51,1c.25.38,1,1.17.64.57s-.17-1.07.09-.71a6.25,6.25,0,0,0,1.19,1.22c.86.74,1.42.72.84.27a2.68,2.68,0,0,1-1-1.16,3.82,3.82,0,0,1-.14-.56,11.06,11.06,0,0,0,1.14,1.13,6.06,6.06,0,0,0,1.66.8c.83.3,1.44.43,2.11.65a9.3,9.3,0,0,0,1.49.27,16.68,16.68,0,0,0,2,0c.64.06,1.14,0,1.77.08a9.5,9.5,0,0,0,1.84.27c.9,0,1.26-.16,2-.14s1.73-.21,1.45-.28a6.67,6.67,0,0,1-1.64-.89,8.36,8.36,0,0,1-1.45-1.4,2.38,2.38,0,0,1-.71-1.35c.64.45,2,1.74,2.82,2.27a11,11,0,0,0,2.07,1c.28.06,1-.55,1.46-1.08a2,2,0,0,1,1.33-.63c.34-.05,1-.77,1.38-.81s1.09-.92,1.51-1.29a2.1,2.1,0,0,1,1.45-.57c.39.06,1.28-1.43,1.54-1.93s1.15-1.32,1.07-1.57c-1.14-.4-1.77-1.91-2.11-2.6l-1.34-2.66A5.9,5.9,0,0,1,46.72,12a6,6,0,0,0,2.66,2.13A5.34,5.34,0,0,0,50,12.32c.14-.66.42-.76.82-1.22s.3-1.19.62-2.31c.07-.24,1.24-6.19,1.23-6.51C49.26,4.79,46.12,8,40.81,13.17" transform="translate(-0.02 -0.06)" style="fill: #fff"/>
    <path d="M11,16.42A29.62,29.62,0,0,0,16.55,19a20.54,20.54,0,0,0,11.75.44,28.24,28.24,0,0,0,12-6.88c3.47-3.13,7.34-7.1,11-9.82l1.45-1.09c-4.93,3.86-8.61,7.9-12.14,11.25-3.77,3.58-7.36,6.36-12.08,7.29a22.36,22.36,0,0,1-9,.06,29.39,29.39,0,0,1-8.5-3.7v-.14" transform="translate(-0.02 -0.06)" style="fill: #fff"/>
  </g>
</svg>
